<mxfile host="app.diagrams.net" modified="2023-07-10T02:50:56.194Z" agent="Mozilla/5.0 (Macintosh; Intel Mac OS X 10_15_7) AppleWebKit/537.36 (KHTML, like Gecko) Chrome/114.0.0.0 Safari/537.36" version="21.5.0" etag="IpyRrgB_6O4Rz29EVTTr" type="github">
  <diagram name="Page-1" id="3ZlEtkQTD-ENF1fooTIw">
    <mxGraphModel>
      <root>
        <mxCell id="0" />
        <mxCell id="1" parent="0" />
      </root>
    </mxGraphModel>
  </diagram>
</mxfile>
